<svg xmlns="http://www.w3.org/2000/svg" viewBox="25 175 365 50" fill="#ffffff">
  <path d="m30 179.94h10.693l14.729 22.765v-22.765h9.819v40.15h-9.6172l-15.805-24.245v24.245h-9.819zm70.549 40.15h-27.574v-40.15h27.574v9.012h-17.351v6.4227h16.275v8.6757h-16.275v7.028h17.351zm6.2209-16.544v-23.606h10.223v23.337c0 2.6453 0.6277 4.7302 1.8831 6.2546 1.2554 1.502 3.004 2.253 5.2458 2.253 2.2418 0 3.9904-0.751 5.2458-2.253 1.2554-1.5244 1.8831-3.6093 1.8831-6.2546v-23.337h10.223v23.606c0 3.968-0.76221 7.2185-2.2866 9.7518-1.5244 2.5556-3.5868 4.4499-6.1873 5.6829-2.6005 1.233-5.5596 1.8495-8.8774 1.8495-3.273 0-6.2209-0.6165-8.8438-1.8495-2.6229-1.233-4.6965-3.1273-6.2209-5.6829-1.5244-2.5332-2.2866-5.7838-2.2866-9.7518zm52.39 16.544h-10.223v-40.15h16.04c3.1161 0 5.7726 0.57165 7.9695 1.715 2.197 1.1657 3.8783 2.7686 5.044 4.8086 1.1882 2.04 1.7822 4.3715 1.7822 6.9944 0 2.5108-0.53803 4.7526-1.6141 6.7254-1.0536 1.9728-2.5556 3.5532-4.506 4.7414l8.4403 15.166h-11.299l-7.1289-13.047h-4.506zm0-31.475v9.9871h4.9768c1.5917 0 2.8695-0.47077 3.8334-1.4123 0.98639-0.94156 1.4796-2.1297 1.4796-3.5644 0-1.4796-0.47077-2.6901-1.4123-3.6317-0.94156-0.91913-2.2418-1.3787-3.9007-1.3787zm45.194-9.4491c3.811 0 7.1849 0.86309 10.122 2.5892 2.9143 1.7038 5.2121 4.1137 6.8935 7.2297 1.6813 3.1385 2.522 6.815 2.522 11.03s-0.84067 7.8911-2.522 11.03c-1.6813 3.1161-3.9792 5.526-6.8935 7.2297-2.9367 1.7038-6.3106 2.5556-10.122 2.5556-3.7886 0-7.1513-0.85188-10.088-2.5556-2.9367-1.7038-5.2346-4.1137-6.8935-7.2297-1.6813-3.1385-2.522-6.815-2.522-11.03s0.84067-7.8911 2.522-11.03c1.6589-3.1161 3.9568-5.526 6.8935-7.2297 2.9367-1.7262 6.2994-2.5892 10.088-2.5892zm-9.1128 20.849c0 2.2418 0.35868 4.2482 1.0761 6.0192 0.71736 1.771 1.7598 3.1609 3.1273 4.1697 1.3451 1.0088 2.9816 1.5132 4.9095 1.5132 1.9504 0 3.5981-0.50441 4.9431-1.5132 1.3451-1.0088 2.3875-2.3987 3.1273-4.1697 0.71736-1.771 1.0761-3.7774 1.0761-6.0192 0-2.2418-0.35868-4.2482-1.0761-6.0192-0.73979-1.771-1.7822-3.1609-3.1273-4.1697-1.3451-1.0088-2.9928-1.5132-4.9431-1.5132-1.9279 0-3.5644 0.50441-4.9095 1.5132-1.3675 1.0088-2.4099 2.3987-3.1273 4.1697s-1.0761 3.7774-1.0761 6.0192zm34.703 20.075v-40.15h12.778l9.819 25.792 9.7518-25.792h12.677v40.15h-9.4827v-25.254l-9.5164 24.817h-7.028l-9.4827-24.648v25.086zm80.334 0h-27.54v-40.15h27.54v9.012h-17.351v6.4227h16.275v8.6757h-16.275v7.028h17.351zm6.5236-40.15h10.223v40.15h-10.223zm17.957 0h10.693l14.729 22.765v-22.765h9.819v40.15h-9.6172l-15.805-24.245v24.245h-9.819z"/>
</svg>
